<?xml version="1.0"?>
<!-- Generated by SVGo and Plotinum VG -->
<svg width="432pt" height="432pt" viewBox="0 0 432 432"
	xmlns="http://www.w3.org/2000/svg"
	xmlns:xlink="http://www.w3.org/1999/xlink">
<g transform="scale(1, -1) translate(0, -432)">
<path d="M0,0L432,0L432,432L0,432Z" style="fill:#FFFFFF" />
<text x="155.52" y="-422.61" transform="scale(1, -1)"
	style="font-family:Liberation Serif;font-variant:normal;font-weight:normal;font-style:normal;font-size:12px">Relación Edad - Ingresos</text>
<text x="228.49" y="-3.9023" transform="scale(1, -1)"
	style="font-family:Liberation Serif;font-variant:normal;font-weight:normal;font-style:normal;font-size:12px">Edad</text>
<text x="49.635" y="-16.541" transform="scale(1, -1)"
	style="font-family:Liberation Serif;font-variant:normal;font-weight:normal;font-style:normal;font-size:10px">25</text>
<text x="173.76" y="-16.541" transform="scale(1, -1)"
	style="font-family:Liberation Serif;font-variant:normal;font-weight:normal;font-style:normal;font-size:10px">30</text>
<text x="297.88" y="-16.541" transform="scale(1, -1)"
	style="font-family:Liberation Serif;font-variant:normal;font-weight:normal;font-style:normal;font-size:10px">35</text>
<text x="422" y="-16.541" transform="scale(1, -1)"
	style="font-family:Liberation Serif;font-variant:normal;font-weight:normal;font-style:normal;font-size:10px">40</text>
<path d="M54.635,24.363L54.635,32.363" style="fill:none;stroke:#000000;stroke-width:0.5" />
<path d="M178.76,24.363L178.76,32.363" style="fill:none;stroke:#000000;stroke-width:0.5" />
<path d="M302.88,24.363L302.88,32.363" style="fill:none;stroke:#000000;stroke-width:0.5" />
<path d="M427,24.363L427,32.363" style="fill:none;stroke:#000000;stroke-width:0.5" />
<path d="M79.459,28.363L79.459,32.363" style="fill:none;stroke:#000000;stroke-width:0.5" />
<path d="M104.28,28.363L104.28,32.363" style="fill:none;stroke:#000000;stroke-width:0.5" />
<path d="M129.11,28.363L129.11,32.363" style="fill:none;stroke:#000000;stroke-width:0.5" />
<path d="M153.93,28.363L153.93,32.363" style="fill:none;stroke:#000000;stroke-width:0.5" />
<path d="M203.58,28.363L203.58,32.363" style="fill:none;stroke:#000000;stroke-width:0.5" />
<path d="M228.41,28.363L228.41,32.363" style="fill:none;stroke:#000000;stroke-width:0.5" />
<path d="M253.23,28.363L253.23,32.363" style="fill:none;stroke:#000000;stroke-width:0.5" />
<path d="M278.05,28.363L278.05,32.363" style="fill:none;stroke:#000000;stroke-width:0.5" />
<path d="M327.7,28.363L327.7,32.363" style="fill:none;stroke:#000000;stroke-width:0.5" />
<path d="M352.53,28.363L352.53,32.363" style="fill:none;stroke:#000000;stroke-width:0.5" />
<path d="M377.35,28.363L377.35,32.363" style="fill:none;stroke:#000000;stroke-width:0.5" />
<path d="M402.18,28.363L402.18,32.363" style="fill:none;stroke:#000000;stroke-width:0.5" />
<path d="M54.635,32.363L427,32.363" style="fill:none;stroke:#000000;stroke-width:0.5" />
<g transform="rotate(90)">
<text x="206.31" y="9.3867" transform="scale(1, -1)"
	style="font-family:Liberation Serif;font-variant:normal;font-weight:normal;font-style:normal;font-size:12px">Ingresos</text>
</g>
<text x="20.885" y="-59.773" transform="scale(1, -1)"
	style="font-family:Liberation Serif;font-variant:normal;font-weight:normal;font-style:normal;font-size:10px">800</text>
<text x="15.885" y="-235.33" transform="scale(1, -1)"
	style="font-family:Liberation Serif;font-variant:normal;font-weight:normal;font-style:normal;font-size:10px">1200</text>
<text x="15.885" y="-410.89" transform="scale(1, -1)"
	style="font-family:Liberation Serif;font-variant:normal;font-weight:normal;font-style:normal;font-size:10px">1600</text>
<path d="M38.385,62.058L46.385,62.058" style="fill:none;stroke:#000000;stroke-width:0.5" />
<path d="M38.385,237.62L46.385,237.62" style="fill:none;stroke:#000000;stroke-width:0.5" />
<path d="M38.385,413.17L46.385,413.17" style="fill:none;stroke:#000000;stroke-width:0.5" />
<path d="M42.385,105.95L46.385,105.95" style="fill:none;stroke:#000000;stroke-width:0.5" />
<path d="M42.385,149.84L46.385,149.84" style="fill:none;stroke:#000000;stroke-width:0.5" />
<path d="M42.385,193.73L46.385,193.73" style="fill:none;stroke:#000000;stroke-width:0.5" />
<path d="M42.385,281.51L46.385,281.51" style="fill:none;stroke:#000000;stroke-width:0.5" />
<path d="M42.385,325.39L46.385,325.39" style="fill:none;stroke:#000000;stroke-width:0.5" />
<path d="M42.385,369.28L46.385,369.28" style="fill:none;stroke:#000000;stroke-width:0.5" />
<path d="M46.385,40.113L46.385,413.17" style="fill:none;stroke:#000000;stroke-width:0.5" />
<path d="M181.26,149.84A2.5,2.5 0 1 1 176.26,149.84A2.5,2.5 0 1 1 181.26,149.84Z" style="fill:none;stroke:#000000;stroke-width:0.5" />
<path d="M106.78,141.06A2.5,2.5 0 1 1 101.78,141.06A2.5,2.5 0 1 1 106.78,141.06Z" style="fill:none;stroke:#000000;stroke-width:0.5" />
<path d="M429.5,369.28A2.5,2.5 0 1 1 424.5,369.28A2.5,2.5 0 1 1 429.5,369.28Z" style="fill:none;stroke:#000000;stroke-width:0.5" />
<path d="M181.26,237.62A2.5,2.5 0 1 1 176.26,237.62A2.5,2.5 0 1 1 181.26,237.62Z" style="fill:none;stroke:#000000;stroke-width:0.5" />
<path d="M230.91,105.95A2.5,2.5 0 1 1 225.91,105.95A2.5,2.5 0 1 1 230.91,105.95Z" style="fill:none;stroke:#000000;stroke-width:0.5" />
<path d="M429.5,413.17A2.5,2.5 0 1 1 424.5,413.17A2.5,2.5 0 1 1 429.5,413.17Z" style="fill:none;stroke:#000000;stroke-width:0.5" />
<path d="M181.26,193.73A2.5,2.5 0 1 1 176.26,193.73A2.5,2.5 0 1 1 181.26,193.73Z" style="fill:none;stroke:#000000;stroke-width:0.5" />
<path d="M57.135,84.003A2.5,2.5 0 1 1 52.135,84.003A2.5,2.5 0 1 1 57.135,84.003Z" style="fill:none;stroke:#000000;stroke-width:0.5" />
<path d="M429.5,391.23A2.5,2.5 0 1 1 424.5,391.23A2.5,2.5 0 1 1 429.5,391.23Z" style="fill:none;stroke:#000000;stroke-width:0.5" />
<path d="M181.26,193.73A2.5,2.5 0 1 1 176.26,193.73A2.5,2.5 0 1 1 181.26,193.73Z" style="fill:none;stroke:#000000;stroke-width:0.5" />
<path d="M57.135,40.113A2.5,2.5 0 1 1 52.135,40.113A2.5,2.5 0 1 1 57.135,40.113Z" style="fill:none;stroke:#000000;stroke-width:0.5" />
<path d="M429.5,325.39A2.5,2.5 0 1 1 424.5,325.39A2.5,2.5 0 1 1 429.5,325.39Z" style="fill:none;stroke:#000000;stroke-width:0.5" />
<path d="M181.26,149.84A2.5,2.5 0 1 1 176.26,149.84A2.5,2.5 0 1 1 181.26,149.84Z" style="fill:none;stroke:#000000;stroke-width:0.5" />
<path d="M106.78,149.84A2.5,2.5 0 1 1 101.78,149.84A2.5,2.5 0 1 1 106.78,149.84Z" style="fill:none;stroke:#000000;stroke-width:0.5" />
<path d="M429.5,369.28A2.5,2.5 0 1 1 424.5,369.28A2.5,2.5 0 1 1 429.5,369.28Z" style="fill:none;stroke:#000000;stroke-width:0.5" />
<path d="M181.26,237.62A2.5,2.5 0 1 1 176.26,237.62A2.5,2.5 0 1 1 181.26,237.62Z" style="fill:none;stroke:#000000;stroke-width:0.5" />
<path d="M230.91,62.058A2.5,2.5 0 1 1 225.91,62.058A2.5,2.5 0 1 1 230.91,62.058Z" style="fill:none;stroke:#000000;stroke-width:0.5" />
<path d="M429.5,369.28A2.5,2.5 0 1 1 424.5,369.28A2.5,2.5 0 1 1 429.5,369.28Z" style="fill:none;stroke:#000000;stroke-width:0.5" />
<path d="M181.26,149.84A2.5,2.5 0 1 1 176.26,149.84A2.5,2.5 0 1 1 181.26,149.84Z" style="fill:none;stroke:#000000;stroke-width:0.5" />
<path d="M57.135,84.003A2.5,2.5 0 1 1 52.135,84.003A2.5,2.5 0 1 1 57.135,84.003Z" style="fill:none;stroke:#000000;stroke-width:0.5" />
<path d="M429.5,391.23A2.5,2.5 0 1 1 424.5,391.23A2.5,2.5 0 1 1 429.5,391.23Z" style="fill:none;stroke:#000000;stroke-width:0.5" />
<path d="M181.26,149.84A2.5,2.5 0 1 1 176.26,149.84A2.5,2.5 0 1 1 181.26,149.84Z" style="fill:none;stroke:#000000;stroke-width:0.5" />
<path d="M57.135,105.95A2.5,2.5 0 1 1 52.135,105.95A2.5,2.5 0 1 1 57.135,105.95Z" style="fill:none;stroke:#000000;stroke-width:0.5" />
<path d="M429.5,281.51A2.5,2.5 0 1 1 424.5,281.51A2.5,2.5 0 1 1 429.5,281.51Z" style="fill:none;stroke:#000000;stroke-width:0.5" />
</g>
</svg>
